<svg width="94" height="32" viewBox="0 0 94 32" fill="none" xmlns="http://www.w3.org/2000/svg">
<path d="M4 9.74415H8.45991C9.0476 9.7352 9.63088 9.84692 10.1737 10.0724C10.7164 10.2979 11.2072 10.6324 11.6155 11.0551C12.0321 11.4676 12.3627 11.9586 12.5884 12.4997C12.814 13.0407 12.9302 13.6212 12.9302 14.2074C12.9302 14.7936 12.814 15.3741 12.5884 15.9151C12.3627 16.4562 12.0321 16.9472 11.6155 17.3597C11.2073 17.7833 10.7168 18.119 10.1742 18.3461C9.63152 18.5733 9.04816 18.6871 8.45991 18.6807H6.57187V22.4934H4V9.74415ZM8.45991 16.1255C8.96773 16.1255 9.45474 15.9237 9.81383 15.5647C10.1729 15.2056 10.3746 14.7186 10.3746 14.2107C10.3765 13.9595 10.3279 13.7104 10.2316 13.4783C10.1353 13.2463 9.99341 13.0359 9.81423 12.8598C9.64024 12.6761 9.43003 12.5306 9.19691 12.4325C8.96379 12.3343 8.71283 12.2855 8.45991 12.2893H6.57187V16.1188L8.45991 16.1255Z" fill="#EA5504"/>
<path d="M17.4499 15.6284C17.4499 15.6284 14.6812 21.8129 14.3876 22.4633H11.6456L17.4232 9.50391L23.2241 22.4633H20.472C20.1852 21.8195 17.4499 15.6284 17.4499 15.6284Z" fill="#EA5504"/>
<path d="M24.4013 9.74414L26.5862 13.7837L28.7878 9.74414H31.6866L27.8738 16.7759V22.4934H25.3253V16.7759L21.5059 9.74414H24.4013Z" fill="#EA5504"/>
<path d="M41.4205 9.74414V12.2893H38.2349V22.4934H35.6797V12.2893H32.494V9.74414H41.4205Z" fill="#EA5504"/>
<path d="M43.5085 20.5253C43.225 21.1724 42.9315 21.8129 42.6379 22.4633H39.8926L45.6768 9.50391L51.4743 22.4633H48.719L47.8684 20.5319H43.5319L43.5085 20.5253ZM46.821 18.277L45.7001 15.6284L44.5693 18.277H46.821Z" fill="#EA5504"/>
<path d="M59.7473 9.74414V19.9382H64.8377V22.4934H57.1921V9.74414H59.7473Z" fill="#002443"/>
<path d="M72.3364 7.62222H70.1214V2.21495H18.5339V7.62222H16.319V0H72.3364V7.62222Z" fill="#EA5504"/>
<path d="M72.3364 32.0001H16.319V24.3779H18.5339V29.7852H70.1214V24.3779H72.3364V32.0001Z" fill="#002443"/>
<path d="M71.2522 15.6284L68.1933 22.4633H65.448L71.2289 9.50391L74.1276 15.9836L77.0264 22.4633H74.2878L71.2522 15.6284Z" fill="#002443"/>
<path d="M85.2057 15.425C85.5257 14.8455 85.6888 14.1925 85.679 13.5307C85.6692 12.8688 85.4868 12.221 85.1499 11.6513C84.813 11.0815 84.3332 10.6096 83.7579 10.2821C83.1826 9.95466 82.5319 9.78302 81.87 9.78419H78.0005V22.4601H83.2076C84.0367 22.4635 84.8442 22.1955 85.5068 21.6972C86.1694 21.1988 86.6508 20.4974 86.8776 19.6999C87.1044 18.9024 87.0641 18.0526 86.7628 17.2802C86.4616 16.5077 85.9159 15.855 85.2091 15.4216L85.2057 15.425ZM80.5357 12.3127H81.87C82.207 12.3074 82.5324 12.4362 82.7745 12.6708C83.0166 12.9054 83.1556 13.2265 83.1609 13.5636C83.1662 13.9007 83.0374 14.226 82.8028 14.4681C82.5682 14.7102 82.2471 14.8492 81.91 14.8545H80.5323L80.5357 12.3127ZM83.2043 19.9316H80.5357V17.3831H83.2043C83.5305 17.3998 83.8379 17.5411 84.0629 17.778C84.2879 18.0148 84.4134 18.329 84.4134 18.6556C84.4134 18.9823 84.2879 19.2965 84.0629 19.5333C83.8379 19.7702 83.5305 19.9115 83.2043 19.9282V19.9316Z" fill="#002443"/>
<path d="M90.4229 19.9316H87.8844V22.4702H90.4229V19.9316Z" fill="#002443"/>
</svg>
